HIERARCHY
ROOT Hips
{
    OFFSET 0.0 0.0 0.0
    CHANNELS 6 Xposition Yposition Zposition Zrotation Xrotation Yrotation
    JOINT Spine
    {
        OFFSET 0.0 24.596717279374445 0.0
        CHANNELS 3 Zrotation Xrotation Yrotation
        JOINT Chest
        {
            OFFSET 0.0 24.596717279374438 0.0
            CHANNELS 3 Zrotation Xrotation Yrotation
            JOINT Head
            {
                OFFSET 0.0 16.017393901309145 0.0
                CHANNELS 3 Zrotation Xrotation Yrotation
            }
            JOINT LeftUpperArm
            {
                OFFSET 15.321035040924121 0.0 0.0
                CHANNELS 3 Zrotation Xrotation Yrotation
                JOINT LeftLowerArm
                {
                    OFFSET 22.74295587399714 0.0 0.0
                    CHANNELS 3 Zrotation Xrotation Yrotation
                    JOINT LeftHand
                    {
                        OFFSET 19.14833325983384 0.0 0.0
                        CHANNELS 3 Zrotation Xrotation Yrotation
                    }
                    End Site
                    {
                    OFFSET 7.593501558046688 0.0 0.0
                    }
                }
            }
            JOINT RightUpperArm
            {
                OFFSET -15.321035040924121 0.0 0.0
                CHANNELS 3 Zrotation Xrotation Yrotation
                JOINT RightLowerArm
                {
                    OFFSET 22.74295587399714 0.0 0.0
                    CHANNELS 3 Zrotation Xrotation Yrotation
                    JOINT RightHand
                    {
                        OFFSET 19.14833325983384 0.0 0.0
                        CHANNELS 3 Zrotation Xrotation Yrotation
                    }
                    End Site
                    {
                    OFFSET 7.593501558046688 0.0 0.0
                    }
                }
            }
        }
    }
    JOINT LeftUpperLeg
    {
        OFFSET 10.085639640366214 0.0 0.0
        CHANNELS 3 Zrotation Xrotation Yrotation
        JOINT LeftLowerLeg
        {
            OFFSET 38.320029043284094 0.0 0.0
            CHANNELS 3 Zrotation Xrotation Yrotation
            JOINT LeftFootAnkle
            {
                OFFSET 39.23488390235951 0.0 0.0
                CHANNELS 3 Zrotation Xrotation Yrotation
                End Site
                {
                OFFSET 10.742552532151704 0.0 0.0
                }
            }
        }
    }
    JOINT RightUpperLeg
    {
        OFFSET -10.085639640366214 0.0 0.0
        CHANNELS 3 Zrotation Xrotation Yrotation
        JOINT RightLowerLeg
        {
            OFFSET 38.320029043284094 0.0 0.0
            CHANNELS 3 Zrotation Xrotation Yrotation
            JOINT RightFootAnkle
            {
                OFFSET 39.23488390235951 0.0 0.0
                CHANNELS 3 Zrotation Xrotation Yrotation
                End Site
                {
                OFFSET 10.742552532151704 0.0 0.0
                }
            }
        }
    }
}
MOTION
Frames: 8
Frame Time: 0.03333333333333333
-0.1196496051505964 -0.19008860506990652 0.13508201966311606 -3.090633301900281 12.43327748275741 19.87777812217432 8.219513166352124 0.11470790209253597 -6.785804522832971 8.176431397510035 -0.8510157357047557 -6.700121097530728 -50.29536220875941 -7.297816775766644 -113.51216523060009 45.00619724875288 52.17406247743323 14.43125031580198 9.459326244802947 -30.163248354020926 18.345046039685823 -151.42730020835748 36.53517190541489 178.92753049232567 51.285944882596375 30.94404619985433 -152.81755778048955 49.783241480233606 -82.49393454473787 50.02617675458109 25.08832189118213 -37.40605314352429 -137.1891980232503 -112.65609102194934 -58.92603587201183 -30.991168955206923 -145.89320926826252 -19.08027881022118 180.0 -138.1877509207658 48.77713298246721 180.0 175.71494127314452 -77.02523295812456 -84.48589633707878 -146.17636792986283 -28.971627374243912 180.0 -100.08454413484507 -3.0314527607224284 180.0
-0.1310286966136703 -0.19700770547520294 0.12850898465246488 -2.1356057106867197 8.985034682970184 22.557464958792988 9.45807201774165 -0.12980625905769363 -3.2066710235236835 9.43589891302869 -0.6633919991587177 -3.184578761610882 -45.912627194748744 -0.04355494694059602 -119.38009655451717 43.014193271320075 58.439934816388515 10.45457163852347 17.86063940300576 -50.92354082384523 22.542602938751127 -147.29918620620344 29.66025318729202 178.85273840832883 -83.15921549839108 60.17706623701542 -39.12839053691341 -2.269644780862232 15.36908833396686 8.504994681901694 35.24189196908434 -48.55159842083483 -135.75240858896137 -106.93634029898186 -59.19974233411399 -24.97794171526835 -146.1263849253215 -18.51352610137315 180.0 -140.08871454214568 48.00325340158684 180.0 -170.80498509915637 -80.99227175744319 -70.89505347672731 -146.4397190154992 -27.45503001935341 180.0 -98.48239119068819 1.038517226135962 180.0
-0.14315547427997494 -0.20183852875088917 0.12651678630848692 -1.0927487617963398 5.7411016085350965 26.03821300385131 8.682920420479087 -0.23471360576772776 -4.028672374508858 8.644402681839576 -0.8541929020453916 -4.018304313278316 -40.6351770198971 2.185525734386113 -119.31863896233332 41.15496635520387 35.27434731929465 13.94674393426872 10.785525336653881 -31.974375101076138 19.78585000760297 -142.29113681705593 15.247163109093556 -178.88491734133046 -103.86675978135455 30.818500750334973 -20.630474497032157 -11.140180639415984 50.75708937894527 14.265984794900588 76.75364727291414 -60.9402884050389 -110.8699119920059 -99.49819044398308 -57.32219472780808 -17.615392759809957 -148.09684195432573 -15.141068602769028 180.0 -142.0427931298083 48.83079753318502 180.0 -151.58382382726614 -85.33099482672152 -52.18854425213708 -148.44647781877057 -31.82439953299931 180.0 -98.96021837836697 1.9797304190574476 180.0
-0.13489380639349158 -0.2077245439555048 0.11136269919969444 -0.5973488555886086 4.851066945454249 28.486266467957762 8.53444718966676 -0.3590915427369973 -4.7514721026063 8.473942421769511 -1.0824487463198473 -4.752877640351086 -45.190832354847124 5.64817378779867 -121.17727515433099 53.32170382805839 -3.4463601485451325 15.616946841331348 -14.282424754520742 14.836927541491907 44.83184290490243 -124.15627360114759 22.04268165904296 164.07038867125553 -47.21483614761061 75.95997450455431 -65.84978790029704 -1.1939920031525515 4.448474925532557 15.040852659899441 149.50379377229672 -60.472086087408265 -65.2929686692722 -96.00728023393714 -53.97784576587879 -13.77623871504474 -149.44953447911465 -13.369251766756493 180.0 -143.7153487831052 49.03089712963039 180.0 -153.96146246406443 -87.33614613226618 -55.59433653889099 -147.87624930173732 -33.87250548966572 180.0 -101.41578575543213 1.270763375731404 180.0
-0.1509285713245765 -0.21168031958767974 0.05390267984354782 -0.7290096432629406 4.067673470301024 34.74437279007366 5.071952627168691 -0.06121263471452509 -5.160707663552234 5.045929372329421 -0.5174416297729576 -5.146068092283448 -35.03086034007554 6.368633194661014 -125.88681387466292 62.88059249084733 -81.23426521364486 151.96198806019882 3.2055987802613357 -23.352105187543035 8.042384547153489 -99.13451871260261 67.07266366462318 118.39079078015351 -14.987530305568548 75.8392818066119 -83.95099431619923 -1.003514236710559 3.2221289951079752 17.309151970226342 -140.08830371010185 -45.260309500890706 -106.57250865172678 -95.15131125009297 -50.958031606911675 -12.695806598788328 -149.19611395631117 -1.7183461539296807 180.0 -144.0433356937388 39.827093297921714 180.0 -91.70441195775133 -81.31009613033201 3.110165462802538 -146.11038202708417 -17.919754125039614 180.0 -100.22905664737718 39.352638984629905 180.0
-0.15323338659740338 -0.21130573634500507 0.059590660102527414 -0.4807863511560088 3.8129081271299916 33.753049676667345 -1.015249762960775 0.6261673793825119 -7.241791506010668 -0.9277681131255842 0.7513122797399633 -7.252370063863695 -19.351715786347672 0.27558370649956104 -121.83415107880916 -129.75907762273212 -86.63903088939422 -49.67064750567349 8.472110582582282 -48.23509542989628 11.293429168014054 -158.13417787488555 59.69107953129491 157.89721492135655 75.83659935774884 46.02255132930087 -144.67472061990964 -32.19065715007853 1.5446548109377183 87.54803769106603 -144.78904417210933 39.11812275796558 -89.76085475253805 -95.69861912571385 -50.74109862661743 -12.927228752404117 -151.3217273787663 -3.7508201690251655 180.0 -145.51879952372406 44.474083287538114 180.0 -100.62746988525792 -80.28280461078347 -6.001837859077127 -146.5039548392975 -13.564725886177573 180.0 -107.71963017188962 56.94057056658934 180.0
-0.15990129157169722 -0.2169714670751997 0.05922147225278233 0.3365876197104136 2.059959949312817 33.51102461764965 -5.1729075781923255 0.6973889043496917 -5.253930123876572 -5.084179488127309 1.192838109936766 -5.29650007647209 -8.981683126565889 2.8371386193648402 -124.65873508022457 106.60519313887954 -19.34082399089577 -178.58533313841792 -9.248150436462327 50.39401822382299 11.933364059049811 -6.889036629069019 22.29799252107731 -13.130132707544373 86.83749200189129 35.34004634885942 -147.68550346566352 -30.89139586818986 9.132683449411145 75.14201507277676 125.64995673816081 22.48507694033254 -87.78297245162541 -94.05731470141293 -51.37465373563895 -11.034474634502498 -153.00144535986692 -3.862914722432498 180.0 -144.7835624915442 44.001514633167545 180.0 -94.42253982146096 -79.62740209431519 0.5075573813272377 -146.14751960785603 -14.63314366828239 180.0 -108.19416627658167 62.27646535464657 180.0
-0.1591139559174636 -0.22222455414255057 0.0539460845689251 0.8203647917592053 0.6649797200402048 33.20446724178714 -5.9079952424264315 0.7220735521140998 -5.590171509680552 -5.805654397667002 1.3240351241337618 -5.636217979098171 -5.741184955907465 3.102621974786544 -123.65982248426933 92.77830421087047 65.30980230294894 -135.63787882248505 -109.97437876198435 47.27338625505058 104.94926802441087 33.87785228654053 72.06891319824733 38.475498333648744 96.10156160674455 26.22507494274451 -148.7615501770335 -59.146080084706675 4.5075549308548695 87.311956118168 130.77589038209595 23.946254790481763 -40.20818029646418 -95.95733441677025 -54.85355573446766 -12.080440514044042 -151.73295941055002 -17.187205849859012 180.0 -148.09415758002072 52.71879523774748 180.0 -97.5864767679975 -78.86906556551206 -1.923155914517472 -143.75580196696606 -17.44673094284002 180.0 -106.66014861450043 49.07803584959065 179.99999999999994
